HIERARCHY
ROOT Hips
{
  OFFSET 49.1428 53.3259 2.49718
  CHANNELS 6 Xposition Yposition Zposition Zrotation Xrotation Yrotation
  JOINT spine
  {
    OFFSET 0 7.80059 0.448573
    CHANNELS 3 Zrotation Xrotation Yrotation
    JOINT spine1
    {
      OFFSET 0 10.1364 0
      CHANNELS 3 Zrotation Xrotation Yrotation
      JOINT spine2
      {
        OFFSET 0 9.71251 0
        CHANNELS 3 Zrotation Xrotation Yrotation
        JOINT Neck
        {
          OFFSET 0 24.9361 1.18887
          CHANNELS 3 Zrotation Xrotation Yrotation
          JOINT Head
          {
            OFFSET 0 7.53384 0
            CHANNELS 3 Zrotation Xrotation Yrotation
            End Site
            {
              OFFSET 0 18.2361 -6.01402
            }
          }
        }
        JOINT RightShoulder
        {
          OFFSET -4.08965 10.4888 -0.569457
          CHANNELS 3 Zrotation Xrotation Yrotation
          JOINT RightArm
          {
            OFFSET 0 13.757 0
            CHANNELS 3 Zrotation Xrotation Yrotation
            JOINT RightArmRoll
            {
              OFFSET 0 6.94478 0
              CHANNELS 3 Zrotation Xrotation Yrotation
              JOINT RightForeArm
              {
                OFFSET 0 20.2277 0
                CHANNELS 3 Zrotation Xrotation Yrotation
                JOINT RightForeArmRoll
                {
                  OFFSET 0 7.79312 0
                  CHANNELS 3 Zrotation Xrotation Yrotation
                  JOINT RightHand
                  {
                    OFFSET 0 15.6391 0
                    CHANNELS 3 Zrotation Xrotation Yrotation
                    End Site
                    {
                      OFFSET 0 0 0
                    }
                  }
                }
              }
            }
          }
        }
        JOINT LeftShoulder
        {
          OFFSET 4.08965 10.4888 -0.569457
          CHANNELS 3 Zrotation Xrotation Yrotation
          JOINT LeftArm
          {
            OFFSET 0 13.757 0
            CHANNELS 3 Zrotation Xrotation Yrotation
            JOINT LeftArmRoll
            {
              OFFSET 0 6.94478 0
              CHANNELS 3 Zrotation Xrotation Yrotation
              JOINT LeftForeArm
              {
                OFFSET 0 20.2277 0
                CHANNELS 3 Zrotation Xrotation Yrotation
                JOINT LeftForeArmRoll
                {
                  OFFSET 0 7.79312 0
                  CHANNELS 3 Zrotation Xrotation Yrotation
                  JOINT LeftHand
                  {
                    OFFSET 0 15.6391 0
                    CHANNELS 3 Zrotation Xrotation Yrotation
                    End Site
                    {
                      OFFSET 0 0 0
                    }
                  }
                }
              }
            }
          }
        }
      }
    }
  }
  JOINT RightUpLeg
  {
    OFFSET -6.91416 -1.26788 -1.06358
    CHANNELS 3 Zrotation Xrotation Yrotation
    JOINT RightUpLegRoll
    {
      OFFSET 0 18.3378 0
      CHANNELS 3 Zrotation Xrotation Yrotation
      JOINT RightLeg
      {
        OFFSET 0 -22.7085 0
        CHANNELS 3 Zrotation Xrotation Yrotation
        JOINT RightLegRoll
        {
          OFFSET 0 22.7828 0
          CHANNELS 3 Zrotation Xrotation Yrotation
          JOINT RightFoot
          {
            OFFSET 0 18.9629 0
            CHANNELS 3 Zrotation Xrotation Yrotation
            JOINT RightToeBase
            {
              OFFSET 0 15.852 0
              CHANNELS 3 Zrotation Xrotation Yrotation
              End Site
              {
                OFFSET 0.00671906 7.67701 -0.884892
              }
            }
          }
        }
      }
    }
  }
  JOINT LeftUpLeg
  {
    OFFSET 6.91416 -1.26788 -1.06358
    CHANNELS 3 Zrotation Xrotation Yrotation
    JOINT LeftUpLegRoll
    {
      OFFSET 0 18.3379 0
      CHANNELS 3 Zrotation Xrotation Yrotation
      JOINT LeftLeg
      {
        OFFSET 0 22.7084 0
        CHANNELS 3 Zrotation Xrotation Yrotation
        JOINT LeftLegRoll
        {
          OFFSET 0 22.9934 0
          CHANNELS 3 Zrotation Xrotation Yrotation
          JOINT LeftFoot
          {
            OFFSET 0 18.7522 0
            CHANNELS 3 Zrotation Xrotation Yrotation
            JOINT LeftToeBase
            {
              OFFSET 0 15.852 0
              CHANNELS 3 Zrotation Xrotation Yrotation
              End Site
              {
                OFFSET -0.030112 7.67701 -0.884892
              }
            }
          }
        }
      }
    }
  }
}
MOTION
Frames: 9
Frame Time: 0.00208333
54.8902 93.9915 32.066 -2.55731 -0.274325 5.50449 0.377133 -1.08136 -0.157985 0.75211 1.85226 -0.35668 0.757029 3.49723 -0.369655 -12.6424 23.3076 5.72449 1.2602 -6.71107 1.45276 76.6474 -4.36507 -3.89 96.9042 11.9131 0.253823 -5.78388e-006 -2.15283e-007 -5.75857e-007 16.9736 25.3998 -4.46502 -5.71485e-006 -4.45647e-006 -2.99999 8.02897 -4.95158 0.697774 -67.1358 -1.42217 1.74685 -106.774 6.8735 -7.3551 8.45261e-006 6.51101e-007 -3.11202e-006 -7.54475 14.3353 2.16336 1.2937e-006 -2.04787e-007 3 -8.02921 -4.95142 -0.697668 -178.79 5.63436 -2.97044 180 7.01581e-015 179.082 179.369 8.30656 179.489 -5.28678e-008 -5.90967e-006 -0.0118646 -16.3275 66.6257 18.4955 8.13649 25.2327 -3.48774 -177.017 9.62402 4.42675 4.54188e-006 -4.6773e-006 -1.21447 -5.32178 -16.5267 -0.468978 -1.84517e-006 -2.56875e-006 -0.352057 25.7997 71.8124 -23.7427 -8.13649 25.2327 3.48774 
54.8816 93.9924 32.0553 -2.55908 -0.265156 5.5161 0.376757 -1.07763 -0.157966 0.751403 1.85876 -0.355511 0.756321 3.50373 -0.368469 -12.6395 23.289 5.71881 1.2638 -6.71119 1.45065 76.6552 -4.36658 -3.89112 96.8754 11.8476 0.395771 -5.78388e-006 -2.15283e-007 -5.75857e-007 16.9354 25.2784 -4.44106 -5.71485e-006 -4.45647e-006 -2.99999 8.02897 -4.95158 0.697774 -67.1385 -1.42733 1.7498 -106.77 6.75639 -7.2824 8.45261e-006 6.51101e-007 -3.11202e-006 -7.61646 14.6817 2.20971 1.2937e-006 -2.04787e-007 3 -8.02921 -4.95142 -0.697668 -178.783 5.63378 -2.97831 180 7.01581e-015 179.082 179.373 8.28782 179.489 -5.28678e-008 -5.90967e-006 -0.0118565 -16.323 66.626 18.496 8.13649 25.2327 -3.48774 -177.015 9.6374 4.43312 4.54188e-006 -4.6773e-006 -1.21449 -5.31708 -16.5264 -0.468408 -1.84517e-006 -2.56875e-006 -0.352043 25.7986 71.8156 -23.7484 -8.13649 25.2327 3.48774 
54.8908 93.995 32.064 -2.56087 -0.256281 5.52765 0.376373 -1.07387 -0.157946 0.750682 1.86529 -0.354286 0.7556 3.51025 -0.367226 -12.6368 23.2709 5.71314 1.26799 -6.71154 1.44856 76.6626 -4.36807 -3.89221 96.8479 11.7815 0.535863 -5.78388e-006 -2.15283e-007 -5.75857e-007 16.8983 25.1588 -4.41757 -5.71485e-006 -4.45647e-006 -2.99999 8.02897 -4.95158 0.697774 -67.1411 -1.43236 1.75269 -106.766 6.63831 -7.20435 8.45261e-006 6.51101e-007 -3.11202e-006 -7.69208 15.0383 2.25785 1.2937e-006 -2.04787e-007 3 -8.02921 -4.95142 -0.697668 -178.777 5.63281 -2.98645 180 7.01581e-015 179.082 179.377 8.26909 179.489 -5.28678e-008 -5.90967e-006 -0.0118444 -16.3186 66.6264 18.4967 8.13649 25.2327 -3.48774 -177.013 9.65035 4.43919 4.54188e-006 -4.6773e-006 -1.21453 -5.31266 -16.526 -0.467906 -1.84517e-006 -2.56875e-006 -0.352019 25.7979 71.8188 -23.7543 -8.13649 25.2327 3.48774 
54.8893 93.9939 32.0532 -2.56267 -0.24761 5.53915 0.375983 -1.07009 -0.157925 0.74995 1.87183 -0.353022 0.754867 3.5168 -0.365943 -12.6341 23.2532 5.70748 1.27258 -6.71205 1.44647 76.6696 -4.36957 -3.89329 96.8215 11.7149 0.674636 -5.78388e-006 -2.15283e-007 -5.75857e-007 16.862 25.0404 -4.39444 -5.71485e-006 -4.45647e-006 -2.99999 8.02897 -4.95158 0.697774 -67.1438 -1.43729 1.75552 -106.763 6.51953 -7.12259 8.45261e-006 6.51101e-007 -3.11202e-006 -7.77065 15.402 2.30736 1.2937e-006 -2.04787e-007 3 -8.02921 -4.95142 -0.697668 -178.77 5.63156 -2.9948 180 7.01581e-015 179.082 179.381 8.2503 179.49 -5.28678e-008 -5.90967e-006 -0.0118295 -16.3142 66.627 18.4975 8.13649 25.2327 -3.48774 -177.011 9.66299 4.44503 4.54188e-006 -4.6773e-006 -1.21457 -5.30845 -16.5255 -0.467451 -1.84517e-006 -2.56875e-006 -0.351989 25.7975 71.8222 -23.7604 -8.13649 25.2327 3.48774 
54.8859 93.995 32.0493 -2.56447 -0.239057 5.55063 0.375589 -1.06629 -0.157903 0.749213 1.87838 -0.351735 0.754129 3.52335 -0.364638 -12.6314 23.2357 5.70183 1.27741 -6.71265 1.44439 76.6765 -4.37106 -3.89434 96.7958 11.648 0.812628 -5.78388e-006 -2.15283e-007 -5.75857e-007 16.8262 24.9229 -4.37153 -5.71485e-006 -4.45647e-006 -2.99999 8.02897 -4.95158 0.697774 -67.1464 -1.44218 1.75833 -106.76 6.40031 -7.03873 8.45261e-006 6.51101e-007 -3.11202e-006 -7.85123 15.7699 2.35776 1.2937e-006 -2.04787e-007 3 -8.02921 -4.95142 -0.697668 -178.764 5.63016 -3.00326 180 7.01581e-015 179.082 179.386 8.23154 179.49 -5.28678e-008 -5.90967e-006 -0.011813 -16.3098 66.6276 18.4984 8.13649 25.2327 -3.48774 -177.009 9.67545 4.45075 4.54188e-006 -4.6773e-006 -1.21462 -5.30436 -16.5249 -0.467024 -1.84517e-006 -2.56875e-006 -0.351954 25.7972 71.8255 -23.7665 -8.13649 25.2327 3.48774 
54.8831 93.994 32.0416 -2.56628 -0.230533 5.5621 0.375195 -1.0625 -0.157881 0.748473 1.88493 -0.350443 0.753389 3.5299 -0.363328 -12.6288 23.2183 5.69618 1.2823 -6.71327 1.44232 76.6833 -4.37254 -3.8954 96.7705 11.581 0.950376 -5.78388e-006 -2.15283e-007 -5.75857e-007 16.7906 24.8055 -4.34872 -5.71485e-006 -4.45647e-006 -2.99999 8.02897 -4.95158 0.697774 -67.1491 -1.44705 1.76113 -106.756 6.28095 -6.95441 8.45261e-006 6.51101e-007 -3.11202e-006 -7.93282 16.1388 2.40861 1.2937e-006 -2.04787e-007 3 -8.02921 -4.95142 -0.697668 -178.757 5.62872 -3.01174 180 7.01581e-015 179.081 179.39 8.21275 179.49 -5.28678e-008 -5.90967e-006 -0.0117961 -16.3054 66.6283 18.4992 8.13649 25.2327 -3.48774 -177.007 9.68787 4.45644 4.54188e-006 -4.6773e-006 -1.21467 -5.30029 -16.5243 -0.466604 -1.84517e-006 -2.56875e-006 -0.351919 25.797 71.8288 -23.7726 -8.13649 25.2327 3.48774 
54.83 93.9981 32.0616 -2.56809 -0.221952 5.57359 0.374802 -1.05871 -0.157859 0.747737 1.89148 -0.349162 0.752652 3.53645 -0.362028 -12.6262 23.2007 5.69053 1.28707 -6.71385 1.44023 76.6902 -4.37403 -3.89646 96.7454 11.514 1.08842 -5.78388e-006 -2.15283e-007 -5.75857e-007 16.7549 24.6877 -4.32589 -5.71485e-006 -4.45647e-006 -2.99999 8.02897 -4.95158 0.697774 -67.1517 -1.45195 1.76395 -106.752 6.16173 -6.87123 8.45261e-006 6.51101e-007 -3.11202e-006 -8.01442 16.5055 2.45943 1.2937e-006 -2.04787e-007 3 -8.02921 -4.95142 -0.697668 -178.75 5.62735 -3.02017 180 7.01581e-015 179.081 179.394 8.19398 179.49 -5.28679e-008 -5.90967e-006 -0.01178 -16.301 66.6289 18.5001 8.13649 25.2327 -3.48774 -177.005 9.70038 4.46219 4.54188e-006 -4.6773e-006 -1.21472 -5.29617 -16.5238 -0.46617 -1.84517e-006 -2.56875e-006 -0.351885 25.7967 71.8321 -23.7787 -8.13649 25.2327 3.48774 
54.8363 94.0014 32.0515 -2.5699 -0.213224 5.5851 0.374414 -1.05493 -0.157838 0.747007 1.89801 -0.347909 0.751921 3.54299 -0.360757 -12.6235 23.1829 5.68487 1.29154 -6.71431 1.43815 76.6974 -4.37553 -3.89754 96.7201 11.4472 1.22729 -5.78388e-006 -2.15283e-007 -5.75857e-007 16.7188 24.5689 -4.30292 -5.71485e-006 -4.45647e-006 -2.99999 8.02897 -4.95158 0.697774 -67.1544 -1.45691 1.7668 -106.747 6.04291 -6.79082 8.45261e-006 6.51101e-007 -3.11202e-006 -8.09498 16.8671 2.50973 1.2937e-006 -2.04787e-007 3 -8.02921 -4.95142 -0.697668 -178.743 5.62618 -3.02846 180 7.01581e-015 179.081 179.398 8.1752 179.49 -5.28678e-008 -5.90967e-006 -0.0117659 -16.2966 66.6295 18.5008 8.13649 25.2327 -3.48774 -177.003 9.71311 4.4681 4.54188e-006 -4.6773e-006 -1.21477 -5.2919 -16.5233 -0.465702 -1.84517e-006 -2.56875e-006 -0.351857 25.7962 71.8354 -23.7848 -8.13649 25.2327 3.48774 
54.8442 94.0035 32.0579 -2.5717 -0.204263 5.59667 0.374032 -1.05118 -0.157818 0.746288 1.90453 -0.346701 0.751202 3.54951 -0.359531 -12.6207 23.1647 5.67921 1.29555 -6.71459 1.43605 76.7048 -4.37703 -3.89864 96.6943 11.3809 1.36752 -5.78388e-006 -2.15283e-007 -5.75857e-007 16.6821 24.4487 -4.2797 -5.71485e-006 -4.45647e-006 -2.99999 8.02897 -4.95158 0.697774 -67.1571 -1.46197 1.76971 -106.742 5.9248 -6.7148 8.45261e-006 6.51101e-007 -3.11202e-006 -8.17345 17.2204 2.55902 1.2937e-006 -2.04787e-007 3 -8.02921 -4.95142 -0.697668 -178.737 5.62533 -3.03652 180 7.01581e-015 179.081 179.402 8.15648 179.49 -5.28678e-008 -5.90967e-006 -0.011755 -16.2922 66.6298 18.5015 8.13649 25.2327 -3.48774 -177.002 9.72618 4.47426 4.54188e-006 -4.6773e-006 -1.2148 -5.2874 -16.5229 -0.46518 -1.84517e-006 -2.56875e-006 -0.351836 25.7954 71.8387 -23.7906 -8.13649 25.2327 3.48774 
